<svg width="512" height="512" viewBox="0 0 512 512" xmlns="http://www.w3.org/2000/svg"><defs><linearGradient id="tile" x1="0" y1="0" x2="1" y2="1"><stop offset="0" stop-color="#0C1430"/><stop offset="1" stop-color="#060A1A"/></linearGradient><radialGradient id="g" cx="0.5" cy="0.5" r="0.55"><stop offset="0" stop-color="#34A8FF" stop-opacity="0.5"/><stop offset="0.55" stop-color="#34A8FF" stop-opacity="0.12"/><stop offset="1" stop-color="#34A8FF" stop-opacity="0"/></radialGradient></defs><rect width="512" height="512" rx="115" fill="url(#tile)"/><circle cx="256" cy="256" r="239" fill="url(#g)"/><polygon points="256.0,244.6 256.0,91.0 318.6,165.0" fill="#60AAFA"/><polygon points="256.0,244.6 318.6,165.0 341.3,312.9" fill="#2E62E6"/><polygon points="256.0,244.6 341.3,312.9 273.1,415.3" fill="#82CDFF"/><polygon points="256.0,244.6 273.1,415.3 210.5,358.4" fill="#224EAA"/><polygon points="256.0,244.6 210.5,358.4 176.4,182.0" fill="#5096F0"/><polygon points="256.0,244.6 176.4,182.0 256.0,91.0" fill="#3A76CD"/><line x1="256.0" y1="244.6" x2="256.0" y2="91.0" stroke="#080E22" stroke-width="3.7" opacity="0.55"/><line x1="256.0" y1="244.6" x2="318.6" y2="165.0" stroke="#080E22" stroke-width="3.7" opacity="0.55"/><line x1="256.0" y1="244.6" x2="341.3" y2="312.9" stroke="#080E22" stroke-width="3.7" opacity="0.55"/><line x1="256.0" y1="244.6" x2="273.1" y2="415.3" stroke="#080E22" stroke-width="3.7" opacity="0.55"/><line x1="256.0" y1="244.6" x2="210.5" y2="358.4" stroke="#080E22" stroke-width="3.7" opacity="0.55"/><line x1="256.0" y1="244.6" x2="176.4" y2="182.0" stroke="#080E22" stroke-width="3.7" opacity="0.55"/><polygon points="256.0,91.0 318.6,165.0 341.3,312.9 273.1,415.3 210.5,358.4 176.4,182.0" fill="none" stroke="#A0CDFF" stroke-width="5.7" opacity="0.51"/></svg>