<svg width="512" height="512" viewBox="0 0 512 512" xmlns="http://www.w3.org/2000/svg"><defs><linearGradient id="tile" x1="0" y1="0" x2="1" y2="1"><stop offset="0" stop-color="#090A0F"/><stop offset="1" stop-color="#040407"/></linearGradient><radialGradient id="g" cx="0.5" cy="0.5" r="0.55"><stop offset="0" stop-color="#34A8FF" stop-opacity="0.26"/><stop offset="0.55" stop-color="#34A8FF" stop-opacity="0.07"/><stop offset="1" stop-color="#34A8FF" stop-opacity="0"/></radialGradient></defs><rect width="512" height="512" rx="115" fill="url(#tile)"/><circle cx="256" cy="256" r="239" fill="url(#g)"/><polygon points="256.0,91.0 318.6,165.0 341.3,312.9 273.1,415.3 210.5,358.4 176.4,182.0" fill="none" stroke="#CEE8FF" stroke-width="12.8" stroke-linejoin="round"/><line x1="318.6" y1="165.0" x2="273.1" y2="415.3" stroke="#CEE8FF" stroke-width="4.6" opacity="0.47"/><line x1="256.0" y1="91.0" x2="210.5" y2="358.4" stroke="#CEE8FF" stroke-width="4.6" opacity="0.47"/><line x1="341.3" y1="312.9" x2="261.7" y2="261.7" stroke="#CEE8FF" stroke-width="4.6" opacity="0.47"/><polyline points="273.1,227.6 312.9,256.0 298.7,293.0" fill="none" stroke="#3FD2FF" stroke-width="19.9" stroke-linejoin="round" stroke-linecap="round" opacity="0.30"/><polyline points="267.4,113.8 233.2,204.8 273.1,227.6 238.9,307.2 273.1,330.0 250.3,403.9" fill="none" stroke="#3FD2FF" stroke-width="22.8" stroke-linejoin="round" stroke-linecap="round" opacity="0.32"/><polyline points="273.1,227.6 312.9,256.0 298.7,293.0" fill="none" stroke="#EAF7FF" stroke-width="8.5" stroke-linejoin="round" stroke-linecap="round"/><polyline points="267.4,113.8 233.2,204.8 273.1,227.6 238.9,307.2 273.1,330.0 250.3,403.9" fill="none" stroke="#EAF7FF" stroke-width="10.2" stroke-linejoin="round" stroke-linecap="round"/></svg>