<svg width="512" height="512" viewBox="0 0 512 512" xmlns="http://www.w3.org/2000/svg"><defs><linearGradient id="tile" x1="0" y1="0" x2="1" y2="1"><stop offset="0" stop-color="#E9EFF9"/><stop offset="1" stop-color="#CEDBEE"/></linearGradient><linearGradient id="L" x1="0" y1="0" x2="1" y2="1"><stop offset="0" stop-color="#2856CD"/><stop offset="1" stop-color="#0E1E4A"/></linearGradient><linearGradient id="R" x1="0" y1="0" x2="1" y2="1"><stop offset="0" stop-color="#3A8CE4"/><stop offset="1" stop-color="#1C4AAA"/></linearGradient></defs><rect width="512" height="512" rx="115" fill="url(#tile)"/><polygon points="256.0,91.0 176.4,182.0 210.5,358.4 273.1,415.3 256.0,250.3" fill="url(#L)"/><polygon points="256.0,91.0 318.6,165.0 341.3,312.9 273.1,415.3 256.0,250.3" fill="url(#R)"/><line x1="318.6" y1="165.0" x2="273.1" y2="415.3" stroke="#1E4696" stroke-width="4.0" opacity="0.47"/><line x1="256.0" y1="91.0" x2="210.5" y2="358.4" stroke="#142C64" stroke-width="4.0" opacity="0.59"/><line x1="341.3" y1="312.9" x2="261.7" y2="261.7" stroke="#1E4696" stroke-width="3.4" opacity="0.35"/><polyline points="273.1,227.6 312.9,256.0 298.7,293.0" fill="none" stroke="#78AAF0" stroke-width="19.9" stroke-linejoin="round" stroke-linecap="round" opacity="0.30"/><polyline points="267.4,113.8 233.2,204.8 273.1,227.6 238.9,307.2 273.1,330.0 250.3,403.9" fill="none" stroke="#78AAF0" stroke-width="22.8" stroke-linejoin="round" stroke-linecap="round" opacity="0.32"/><polyline points="273.1,227.6 312.9,256.0 298.7,293.0" fill="none" stroke="#12265C" stroke-width="8.5" stroke-linejoin="round" stroke-linecap="round"/><polyline points="267.4,113.8 233.2,204.8 273.1,227.6 238.9,307.2 273.1,330.0 250.3,403.9" fill="none" stroke="#12265C" stroke-width="10.2" stroke-linejoin="round" stroke-linecap="round"/></svg>