<svg width="512" height="512" viewBox="0 0 512 512" xmlns="http://www.w3.org/2000/svg"><defs><linearGradient id="tile" x1="0" y1="0" x2="1" y2="1"><stop offset="0" stop-color="#080C18"/><stop offset="1" stop-color="#04060E"/></linearGradient><radialGradient id="g" cx="0.5" cy="0.5" r="0.55"><stop offset="0" stop-color="#32C8FF" stop-opacity="0.32"/><stop offset="0.55" stop-color="#32C8FF" stop-opacity="0.08"/><stop offset="1" stop-color="#32C8FF" stop-opacity="0"/></radialGradient></defs><rect width="512" height="512" rx="115" fill="url(#tile)"/><circle cx="256" cy="256" r="239" fill="url(#g)"/><polygon points="256.0,91.0 318.6,165.0 341.3,312.9 273.1,415.3 210.5,358.4 176.4,182.0" fill="none" stroke="#50E1FF" stroke-width="5.1" stroke-linejoin="round" opacity="0.82"/><line x1="318.6" y1="165.0" x2="273.1" y2="415.3" stroke="#50E1FF" stroke-width="3.7" opacity="0.55"/><line x1="256.0" y1="91.0" x2="210.5" y2="358.4" stroke="#50E1FF" stroke-width="3.7" opacity="0.55"/><line x1="341.3" y1="312.9" x2="261.7" y2="261.7" stroke="#50E1FF" stroke-width="3.7" opacity="0.55"/><line x1="256.0" y1="91.0" x2="256.0" y2="244.6" stroke="#50E1FF" stroke-width="3.7" opacity="0.55"/><line x1="256.0" y1="244.6" x2="341.3" y2="312.9" stroke="#50E1FF" stroke-width="3.7" opacity="0.55"/><line x1="210.5" y1="358.4" x2="273.1" y2="415.3" stroke="#50E1FF" stroke-width="3.7" opacity="0.55"/><line x1="176.4" y1="182.0" x2="256.0" y2="244.6" stroke="#50E1FF" stroke-width="3.7" opacity="0.55"/><circle cx="256.0" cy="91.0" r="13.1" fill="#28789F"/><circle cx="256.0" cy="91.0" r="7.4" fill="#E1FAFF"/><circle cx="318.6" cy="165.0" r="13.1" fill="#28789F"/><circle cx="318.6" cy="165.0" r="7.4" fill="#E1FAFF"/><circle cx="341.3" cy="312.9" r="13.1" fill="#28789F"/><circle cx="341.3" cy="312.9" r="7.4" fill="#E1FAFF"/><circle cx="273.1" cy="415.3" r="13.1" fill="#28789F"/><circle cx="273.1" cy="415.3" r="7.4" fill="#E1FAFF"/><circle cx="210.5" cy="358.4" r="13.1" fill="#28789F"/><circle cx="210.5" cy="358.4" r="7.4" fill="#E1FAFF"/><circle cx="176.4" cy="182.0" r="13.1" fill="#28789F"/><circle cx="176.4" cy="182.0" r="7.4" fill="#E1FAFF"/><circle cx="256.0" cy="244.6" r="13.1" fill="#28789F"/><circle cx="256.0" cy="244.6" r="7.4" fill="#E1FAFF"/></svg>