<svg width="512" height="512" viewBox="0 0 512 512" xmlns="http://www.w3.org/2000/svg"><defs><linearGradient id="tile" x1="0" y1="0" x2="1" y2="1"><stop offset="0" stop-color="#1A0C30"/><stop offset="1" stop-color="#0C0618"/></linearGradient><radialGradient id="g" cx="0.5" cy="0.5" r="0.55"><stop offset="0" stop-color="#965AFF" stop-opacity="0.55"/><stop offset="0.55" stop-color="#965AFF" stop-opacity="0.14"/><stop offset="1" stop-color="#965AFF" stop-opacity="0"/></radialGradient><linearGradient id="L" x1="0" y1="0" x2="1" y2="1"><stop offset="0" stop-color="#783CE6"/><stop offset="1" stop-color="#28105A"/></linearGradient><linearGradient id="R" x1="0" y1="0" x2="1" y2="1"><stop offset="0" stop-color="#CD82FF"/><stop offset="1" stop-color="#783CE6"/></linearGradient></defs><rect width="512" height="512" rx="115" fill="url(#tile)"/><circle cx="256" cy="256" r="239" fill="url(#g)"/><polygon points="256.0,91.0 176.4,182.0 210.5,358.4 273.1,415.3 256.0,250.3" fill="url(#L)"/><polygon points="256.0,91.0 318.6,165.0 341.3,312.9 273.1,415.3 256.0,250.3" fill="url(#R)"/><line x1="318.6" y1="165.0" x2="273.1" y2="415.3" stroke="#D2AAFF" stroke-width="4.0" opacity="0.45"/><line x1="256.0" y1="91.0" x2="210.5" y2="358.4" stroke="#461E82" stroke-width="4.0" opacity="0.59"/><line x1="341.3" y1="312.9" x2="261.7" y2="261.7" stroke="#D2AAFF" stroke-width="3.4" opacity="0.35"/><polyline points="273.1,227.6 312.9,256.0 298.7,293.0" fill="none" stroke="#C88CFF" stroke-width="19.9" stroke-linejoin="round" stroke-linecap="round" opacity="0.30"/><polyline points="267.4,113.8 233.2,204.8 273.1,227.6 238.9,307.2 273.1,330.0 250.3,403.9" fill="none" stroke="#C88CFF" stroke-width="22.8" stroke-linejoin="round" stroke-linecap="round" opacity="0.32"/><polyline points="273.1,227.6 312.9,256.0 298.7,293.0" fill="none" stroke="#F5EEFF" stroke-width="8.5" stroke-linejoin="round" stroke-linecap="round"/><polyline points="267.4,113.8 233.2,204.8 273.1,227.6 238.9,307.2 273.1,330.0 250.3,403.9" fill="none" stroke="#F5EEFF" stroke-width="10.2" stroke-linejoin="round" stroke-linecap="round"/></svg>